<?xml version="1.0" standalone="no"?>
<!DOCTYPE svg PUBLIC "-//W3C//DTD SVG 20010904//EN"
 "http://www.w3.org/TR/2001/REC-SVG-20010904/DTD/svg10.dtd">
<svg version="1.0" xmlns="http://www.w3.org/2000/svg"
 width="50.000000pt" height="50.000000pt" viewBox="0 0 50.000000 50.000000"
 preserveAspectRatio="xMidYMid meet">

<g transform="translate(0.000000,50.000000) scale(0.100000,-0.100000)"
fill="#000000" stroke="none">
<path d="M155 456 c-60 -28 -87 -56 -114 -116 -36 -79 -19 -183 42 -249 33
-36 115 -71 167 -71 52 0 134 35 167 71 34 37 63 110 63 159 0 52 -35 134 -71
167 -37 34 -110 63 -159 63 -27 0 -65 -10 -95 -24z m173 -12 c174 -72 174
-316 0 -388 -133 -56 -287 47 -288 192 -1 147 154 253 288 196z"/>
<path d="M148 384 c-31 -13 -41 -25 -56 -67 -45 -122 -36 -166 39 -188 35 -11
42 -11 49 2 11 19 121 19 144 0 21 -18 81 2 102 34 13 20 14 33 4 82 -20 92
-37 120 -89 140 -33 13 -46 14 -49 5 -4 -14 -82 -16 -82 -2 0 14 -18 12 -62
-6z m6 -30 c-18 -14 -18 -15 6 -7 32 10 148 10 180 0 24 -8 24 -7 6 7 -16 13
-17 16 -4 16 24 0 45 -30 62 -89 24 -82 21 -108 -14 -126 -32 -17 -60 -20 -60
-7 0 5 12 14 26 21 42 19 20 24 -30 7 -26 -9 -60 -16 -76 -16 -16 0 -50 7 -76
16 -50 17 -72 12 -30 -7 14 -7 26 -16 26 -21 0 -13 -28 -10 -60 7 -35 18 -38
44 -14 126 17 59 38 89 62 89 13 0 12 -3 -4 -16z"/>
<path d="M172 268 c-29 -29 3 -82 36 -61 25 15 22 67 -3 71 -11 1 -26 -3 -33
-10z m44 -37 c-11 -18 -36 -13 -36 7 0 10 3 22 7 26 10 10 37 -20 29 -33z"/>
<path d="M277 273 c-13 -12 -7 -50 9 -64 31 -26 70 25 44 56 -13 16 -42 20
-53 8z m43 -34 c0 -20 -24 -26 -35 -9 -8 13 14 42 26 34 5 -3 9 -14 9 -25z"/>
</g>
</svg>
