<?xml version="1.0" standalone="no"?>
<!DOCTYPE svg PUBLIC "-//W3C//DTD SVG 20010904//EN"
 "http://www.w3.org/TR/2001/REC-SVG-20010904/DTD/svg10.dtd">
<svg version="1.0" xmlns="http://www.w3.org/2000/svg"
 width="50.000000pt" height="50.000000pt" viewBox="0 0 50.000000 50.000000"
 preserveAspectRatio="xMidYMid meet">

<g transform="translate(0.000000,50.000000) scale(0.100000,-0.100000)"
fill="#000000" stroke="none">
<path d="M155 456 c-60 -28 -87 -56 -114 -116 -36 -79 -19 -183 42 -249 33
-36 115 -71 167 -71 52 0 134 35 167 71 34 37 63 110 63 159 0 52 -35 134 -71
167 -37 34 -110 63 -159 63 -27 0 -65 -10 -95 -24z m180 -15 c51 -23 101 -79
114 -128 16 -58 14 -63 -23 -63 -30 0 -34 4 -41 33 -4 17 -8 48 -9 67 -1 32
-3 35 -31 33 -16 -2 -59 -3 -95 -3 -36 0 -78 1 -95 3 -25 2 -30 -2 -33 -23
-11 -112 -11 -110 -48 -110 -40 0 -44 17 -18 78 45 109 173 161 279 113z m-85
-84 c41 0 83 4 93 8 15 6 18 2 17 -26 0 -19 2 -48 6 -65 4 -24 0 -37 -19 -60
-23 -27 -30 -29 -95 -29 -61 0 -74 3 -97 25 -22 21 -26 31 -21 60 4 19 6 50 6
69 -1 28 2 32 17 26 10 -4 52 -8 93 -8z m-141 -121 c-11 -9 -69 -14 -69 -6 0
6 16 10 37 10 20 0 34 -2 32 -4z m351 -6 c0 -5 -14 -7 -32 -3 -46 8 -48 13 -5
13 21 0 37 -4 37 -10z m-318 -35 c16 -14 36 -25 44 -25 8 0 14 -4 14 -10 0
-18 -56 -11 -75 10 -16 18 -45 28 -45 15 0 -3 11 -23 25 -45 18 -29 32 -40 50
-40 20 0 25 -5 25 -25 0 -25 -1 -25 -29 -11 -57 30 -114 116 -96 145 11 19 56
12 87 -14z m303 14 c18 -29 -39 -115 -95 -144 l-28 -14 -4 42 c-3 23 -8 50
-12 60 -6 12 -4 17 7 17 9 0 29 11 44 25 29 25 77 33 88 14z m-155 -69 c6 -12
10 -38 8 -58 -3 -37 -3 -37 -48 -37 -45 0 -45 0 -48 38 -2 26 2 45 14 58 23
25 60 24 74 -1z m-124 -18 c-10 -2 -22 0 -28 6 -6 6 0 7 19 4 21 -5 23 -7 9
-10z"/>
</g>
</svg>
