<?xml version="1.0" standalone="no"?>
<!DOCTYPE svg PUBLIC "-//W3C//DTD SVG 20010904//EN"
 "http://www.w3.org/TR/2001/REC-SVG-20010904/DTD/svg10.dtd">
<svg version="1.0" xmlns="http://www.w3.org/2000/svg"
 width="50.000000pt" height="50.000000pt" viewBox="0 0 50.000000 50.000000"
 preserveAspectRatio="xMidYMid meet">

<g transform="translate(0.000000,50.000000) scale(0.100000,-0.100000)"
fill="#000000" stroke="none">
<path d="M155 456 c-60 -28 -87 -56 -114 -116 -36 -79 -19 -183 42 -249 33
-36 115 -71 167 -71 52 0 134 35 167 71 34 37 63 110 63 159 0 52 -35 134 -71
167 -37 34 -110 63 -159 63 -27 0 -65 -10 -95 -24z m180 -15 c128 -58 164
-223 72 -328 -101 -115 -283 -88 -348 52 -79 171 104 354 276 276z"/>
<path d="M216 312 c-144 -62 -165 -96 -67 -109 26 -4 53 -16 71 -33 40 -37 88
-56 109 -43 19 12 43 128 39 188 -4 55 -20 55 -152 -3z m134 2 c0 -52 -24
-166 -36 -171 -16 -6 -94 46 -94 63 0 7 16 26 35 41 53 43 42 48 -17 8 -29
-19 -64 -35 -78 -35 -28 0 -61 19 -45 26 81 37 213 93 223 93 6 1 12 -10 12
-25z"/>
</g>
</svg>
