<?xml version="1.0" standalone="no"?>
<!DOCTYPE svg PUBLIC "-//W3C//DTD SVG 20010904//EN"
 "http://www.w3.org/TR/2001/REC-SVG-20010904/DTD/svg10.dtd">
<svg version="1.0" xmlns="http://www.w3.org/2000/svg"
 width="50.000000pt" height="50.000000pt" viewBox="0 0 50.000000 50.000000"
 preserveAspectRatio="xMidYMid meet">

<g transform="translate(0.000000,50.000000) scale(0.100000,-0.100000)"
fill="#000000" stroke="none">
<path d="M155 456 c-60 -28 -87 -56 -114 -116 -36 -79 -19 -183 42 -249 33
-36 115 -71 167 -71 52 0 134 35 167 71 34 37 63 110 63 159 0 52 -35 134 -71
167 -37 34 -110 63 -159 63 -27 0 -65 -10 -95 -24z m180 -15 c128 -58 164
-223 72 -328 -101 -115 -283 -88 -348 52 -79 171 104 354 276 276z"/>
<path d="M95 310 c-10 -17 49 -113 85 -137 38 -26 78 -30 86 -8 5 13 8 13 27
0 25 -17 83 -20 92 -4 4 6 -2 21 -14 33 -26 28 -26 31 0 67 27 39 19 59 -25
59 -31 0 -37 -5 -53 -37 l-18 -38 -5 35 c-5 38 -22 47 -67 35 -20 -5 -23 -9
-13 -20 7 -8 10 -20 8 -27 -3 -7 -12 1 -22 20 -13 25 -23 32 -46 32 -16 0 -32
-5 -35 -10z m70 -43 c27 -42 49 -42 53 1 2 19 9 32 17 32 8 0 15 -13 17 -32 4
-43 26 -43 53 -1 13 21 28 32 44 33 22 0 23 -1 7 -22 -37 -53 -38 -56 -9 -83
l28 -25 -28 0 c-15 0 -39 8 -54 17 -24 16 -26 16 -38 0 -15 -21 -34 -22 -63
-1 -24 16 -72 86 -72 104 0 21 26 8 45 -23z"/>
</g>
</svg>
